<svg width="77" height="22" viewBox="0 0 77 22" fill="none" xmlns="http://www.w3.org/2000/svg">
<g clip-path="url(#clip0_1_70)">
<path d="M5.76114 1.0109C9.10924 3.69331 11.9532 6.94979 14.1602 10.6281L16.3635 8.51062C17.417 7.51033 18.6596 6.73026 20.0185 6.2161C19.4014 4.17946 18.5591 2.48854 17.1786 0.81365C17.0965 0.713367 16.9922 0.633646 16.8739 0.580852C16.7542 0.527661 16.6248 0.500119 16.4939 0.5L5.95149 0.5C5.89084 0.500111 5.8316 0.518312 5.78136 0.552275C5.73169 0.587636 5.69321 0.6365 5.6705 0.693069C5.64827 0.748334 5.64532 0.809476 5.66213 0.866622C5.67817 0.922382 5.71373 0.974657 5.76114 1.0109ZM12.0036 13.9688C13.6177 14.6372 15.2639 15.2325 16.9568 15.6758C19.9794 16.4683 22.843 15.3294 24.2598 12.701L25.9723 9.37978C26.3547 8.56888 26.8431 7.81231 27.4246 7.12986C25.7586 6.53671 23.9613 6.41419 22.2301 6.77579C20.508 7.13276 18.9199 7.96369 17.645 9.17486L15.0262 11.6903C14.1044 12.5804 13.0997 13.2886 12.0036 13.9688ZM1.34617 7.47627C1.30329 7.43667 1.24989 7.41028 1.19238 7.40026C1.13487 7.39025 1.07569 7.39704 1.02195 7.41982C0.96908 7.44161 0.923712 7.47834 0.891392 7.5255C0.859073 7.57266 0.841202 7.62822 0.839966 7.68537V17.7124C0.839966 17.849 0.875525 17.9863 0.943158 18.1111C1.01009 18.2317 1.1091 18.3362 1.22345 18.4171C3.9218 20.1561 6.24015 21.1061 9.47608 21.15C12.7052 21.1975 15.8827 20.337 18.6463 18.6666C19.6587 18.0546 19.8567 17.7933 20.7032 16.9959C19.1483 17.4064 17.7245 17.29 16.2129 16.8955C9.85608 15.2206 5.98286 11.8353 1.34617 7.47627ZM54.1634 8.20882C53.3678 7.54806 52.225 7.21838 50.7371 7.21838C49.2499 7.21838 47.7585 7.52855 46.2475 8.80057C46.2299 8.81541 46.2155 8.83371 46.2052 8.85435C46.195 8.87498 46.1891 8.89751 46.1879 8.92052C46.1867 8.94353 46.1903 8.96654 46.1984 8.98811C46.2065 9.00968 46.2189 9.02936 46.235 9.04592L47.6002 10.4343C47.6257 10.4611 47.6598 10.4782 47.6966 10.4827C47.7333 10.4871 47.7705 10.4787 47.8017 10.4587C48.9849 9.73386 49.7603 9.50454 50.6186 9.50454C51.7697 9.50454 52.347 10.0761 52.347 11.2233V11.7189L50.4206 11.7789C48.759 11.8395 47.5172 12.1531 46.6903 12.7247C45.8675 13.2927 45.452 14.1779 45.452 15.3775C45.452 16.577 45.7567 17.4064 46.3695 18.0268C46.9831 18.6464 47.8219 18.9566 48.8901 18.9566C49.7561 18.9566 50.4603 18.8318 51.0021 18.5781C51.4615 18.3648 51.912 18.0024 52.347 17.4949V18.5858C52.347 18.6785 52.4223 18.7551 52.5137 18.7551H55.196C55.2866 18.7551 55.3619 18.6785 55.3619 18.5858V11.2233C55.3619 9.87535 54.9659 8.87306 54.171 8.2123L54.1634 8.20882ZM51.7146 16.0821C51.2949 16.4927 50.7336 16.6983 50.0294 16.6983C49.0484 16.6983 48.5575 16.2634 48.5575 15.3935C48.5575 14.7857 48.7709 14.3354 49.2025 14.0413C49.6334 13.7437 50.2902 13.5827 51.1687 13.5541L52.3394 13.5137V14.4442C52.3394 15.1245 52.1295 15.6716 51.7105 16.0821H51.7146ZM76.7284 18.4854L73.0058 13.0795V13.0711L76.5304 7.66098C76.5467 7.63548 76.556 7.60609 76.5572 7.57584C76.5584 7.54559 76.5516 7.51556 76.5374 7.48882C76.5236 7.46219 76.5028 7.43982 76.4772 7.4241C76.4517 7.40838 76.4223 7.39991 76.3923 7.3996H73.2784C73.1965 7.39977 73.1159 7.42047 73.0441 7.45979C72.9722 7.49912 72.9113 7.55583 72.8671 7.62473L69.7971 12.3344V3.13675C69.7973 3.09237 69.7799 3.04971 69.7489 3.01801C69.7178 2.9863 69.6755 2.96811 69.6311 2.96738H66.9411C66.8968 2.96811 66.8544 2.9863 66.8234 3.01801C66.7923 3.04971 66.775 3.09237 66.7752 3.13675V18.5816C66.7752 18.6743 66.8498 18.7509 66.9411 18.7509H69.6311C69.7225 18.7509 69.7971 18.6743 69.7971 18.5816V13.7758L73.0727 18.5377C73.1184 18.6035 73.1794 18.6573 73.2505 18.6944C73.3215 18.7316 73.4005 18.751 73.4806 18.7509H76.5938C76.6246 18.7508 76.6548 18.7421 76.681 18.726C76.7071 18.7098 76.7284 18.6867 76.7423 18.6593C76.7562 18.6318 76.7622 18.601 76.7598 18.5704C76.7574 18.5397 76.7465 18.5103 76.7284 18.4854ZM43.6524 18.7509H34.4822C34.3903 18.7504 34.2995 18.7317 34.2149 18.6959C34.1304 18.6602 34.0537 18.6081 33.9894 18.5426C33.925 18.4771 33.8743 18.3995 33.84 18.3143C33.8058 18.2292 33.7887 18.1381 33.7898 18.0463V3.14442C33.7898 3.04823 33.8686 2.96738 33.9634 2.96738H36.6736C36.7684 2.96738 36.8479 3.04823 36.8479 3.14442V15.6437H43.6559C43.7507 15.6437 43.8302 15.7239 43.8302 15.8208V18.5781C43.83 18.6245 43.8117 18.669 43.7791 18.7021C43.7465 18.7352 43.7023 18.7542 43.6559 18.7551L43.6524 18.7509ZM65.0858 7.37521C62.803 6.92843 61.2802 7.72162 60.3466 9.00549V7.6087C60.3468 7.56439 60.3294 7.5218 60.2983 7.49021C60.2673 7.45862 60.2249 7.44058 60.1806 7.44003H57.4983C57.4539 7.44058 57.4115 7.45859 57.3803 7.49017C57.3492 7.52174 57.3317 7.56433 57.3317 7.6087V18.5858C57.3317 18.6785 57.407 18.7551 57.4983 18.7551H60.1806C60.2713 18.7551 60.3466 18.6785 60.3466 18.5858V12.5804C60.3466 12.3588 60.3703 12.1371 60.4295 11.9238C60.9281 10.1123 63.199 9.71434 65.0223 10.0803C65.0465 10.0848 65.0714 10.0839 65.0953 10.0777C65.1191 10.0714 65.1413 10.06 65.1602 10.0443C65.1791 10.0285 65.1943 10.0087 65.2047 9.98638C65.2151 9.96405 65.2204 9.9397 65.2203 9.91508V7.5404C65.2207 7.50213 65.2079 7.4649 65.1842 7.43486C65.1605 7.40483 65.1273 7.38378 65.09 7.37521H65.0858Z" fill="white"/>
</g>
<defs>
<clipPath id="clip0_1_70">
<rect width="76" height="20.91" fill="white" transform="translate(0.839966 0.5)"/>
</clipPath>
</defs>
</svg>
