<svg width="145" height="18" viewBox="0 0 145 18" fill="none" xmlns="http://www.w3.org/2000/svg">
<g clip-path="url(#clip0_1_54)">
<path d="M14.339 10.9799H4.76303V8.60391H17.111C16.787 7.59591 15.743 6.65991 13.907 6.65991H4.94303C2.89103 6.65991 1.70303 7.41591 1.70303 9.07191V10.8359C1.70303 12.2759 2.92703 13.1039 4.72703 13.1039H14.411V15.6239H1.37903C1.70303 16.9919 2.74703 17.7119 4.61903 17.7119H14.375C16.427 17.7119 17.435 16.9199 17.435 15.2279V13.4639C17.435 11.9159 16.247 11.0879 14.339 10.9799Z" fill="white"/>
<path d="M33.8862 6.69604H22.0782V17.748H25.4262V13.5H34.1382C36.5502 13.5 37.8822 12.672 37.8822 10.728V9.50404C37.8462 7.70404 36.3342 6.69604 33.8862 6.69604ZM34.9662 10.224C34.9662 11.016 34.8222 11.448 33.5262 11.448H25.4262L25.4622 8.56804H33.3822C34.8222 8.56804 35.0022 9.00005 35.0022 9.75605V10.224H34.9662Z" fill="white"/>
<path d="M47.6053 6.22803L45.5893 8.71203L49.0093 13.428H41.8813L40.1173 15.3H50.4133L52.1773 17.748H56.1373L47.6053 6.22803Z" fill="white"/>
<path d="M62.5443 8.60391H75.0723C74.7483 7.30791 73.4883 6.65991 71.6883 6.65991H62.3283C60.7083 6.65991 59.1603 7.30791 59.1603 9.07191V15.2639C59.1603 17.0279 60.7083 17.6759 62.3283 17.6759H71.7963C73.9563 17.6759 74.7123 17.0639 75.0723 15.5879H62.5443V8.60391Z" fill="white"/>
<path d="M83.0287 15.66V12.276H89.7607V10.404H79.6447V17.748H94.5847V15.66H83.0287ZM80.0047 6.69604H95.0887V8.64004H80.0047V6.69604Z" fill="white"/>
<path d="M104.373 6.69604H99.1173L105.309 11.232C106.209 10.62 107.253 9.97204 108.189 9.43204L104.373 6.69604ZM112.005 12.348C111.105 12.96 110.205 13.644 109.341 14.292L114.021 17.712H119.313L112.005 12.348Z" fill="white"/>
<path d="M144.482 0.251953C115.682 1.90795 102.362 14.22 99.3738 17.136L98.7618 17.712H104.09C118.49 3.27595 139.19 0.719953 144.482 0.251953Z" fill="white"/>
</g>
<defs>
<clipPath id="clip0_1_54">
<rect width="144" height="18" fill="white" transform="translate(0.839966)"/>
</clipPath>
</defs>
</svg>
