<svg width="96" height="24" viewBox="0 0 96 24" fill="none" xmlns="http://www.w3.org/2000/svg">
<path d="M6.88205 2.5415L12.2651 7.49922V2.55293H13.313V7.52141L18.7201 2.5415V8.19404H20.9401V16.3473H18.727V21.3806L13.313 16.6259V21.4352H12.2651V16.7043L6.88815 21.4383V16.3473H4.66809V8.19404H6.88205V2.5415ZM11.4751 9.2287H5.7159V15.3126H6.88683V13.3935L11.4751 9.2287ZM7.93596 13.8526V19.1295L12.2651 15.3181V9.92208L7.93596 13.8526ZM13.3431 15.2677V9.917L17.6735 13.8478V16.3473H17.6791V19.0757L13.3431 15.2677ZM18.727 15.3126H19.8923V9.2287H14.176L18.727 13.3504V15.3126ZM17.6723 8.19404V4.92142L14.1189 8.19404H17.6723ZM11.4833 8.19404H7.92992V4.92142L11.4833 8.19404ZM46.8295 8.06989H47.4948V9.44039H46.6336C45.9586 9.44039 45.4553 9.60269 45.1216 9.92824C44.79 10.2528 44.6232 10.7865 44.6232 11.5285V16.0223H43.2635V8.10117H44.6232V9.36516C44.6232 9.4365 44.6591 9.47173 44.7289 9.47173C44.7687 9.47173 44.7987 9.46192 44.8201 9.44141C44.8414 9.42084 44.8598 9.38077 44.8811 9.31918C45.143 8.4873 45.7938 8.07085 46.8304 8.07085H46.8295V8.06989ZM55.8739 9.76791C56.2308 10.4023 56.4102 11.1668 56.4102 12.0603C56.4102 12.9538 56.2317 13.7182 55.8739 14.3527C55.516 14.9871 55.0524 15.4622 54.4831 15.777C53.9139 16.0918 53.3019 16.2492 52.6473 16.2492C51.3575 16.2492 50.4507 15.7311 49.927 14.6948C49.8873 14.6137 49.8359 14.5726 49.7757 14.5726C49.7156 14.5726 49.6846 14.6029 49.6846 14.6645V18.915H48.3249V8.10015H49.6846V9.45606C49.6846 9.51664 49.7147 9.54797 49.7757 9.54797C49.8368 9.54797 49.8863 9.50784 49.927 9.42574C50.4507 8.38952 51.3575 7.87142 52.6473 7.87142C53.3019 7.87142 53.9139 8.02881 54.4831 8.3436C55.0524 8.65839 55.515 9.13344 55.8739 9.76791ZM55.0515 12.0603C55.0515 11.1257 54.8022 10.3974 54.3037 9.87448C53.8053 9.35147 53.1487 9.09044 52.3312 9.09044C51.5136 9.09044 50.8571 9.35242 50.3586 9.87448C49.8591 10.3974 49.6769 11.1267 49.6769 12.0603C49.6769 12.9939 49.8601 13.7231 50.3586 14.2461C50.8571 14.7701 51.5146 15.0301 52.3312 15.0301C53.1478 15.0301 53.8053 14.7682 54.3037 14.2461C54.8022 13.7241 55.0515 12.9939 55.0515 12.0603ZM32.9749 9.77964C33.3318 10.4141 33.5112 11.1785 33.5112 12.072C33.5112 12.9655 33.3327 13.73 32.9749 14.3644C32.617 14.9989 32.1535 15.474 31.5842 15.7887C31.0149 16.1035 30.403 16.2609 29.7483 16.2609C28.4585 16.2609 27.5517 15.7428 27.028 14.7066C26.9883 14.6254 26.9369 14.5844 26.8767 14.5844C26.8166 14.5844 26.7856 14.6146 26.7856 14.6762V18.9267H25.4269V8.11193H26.7866V9.46778C26.7866 9.52842 26.8166 9.55969 26.8778 9.55969C26.9388 9.55969 26.9883 9.51963 27.029 9.43746C27.5527 8.40125 28.4595 7.88314 29.7493 7.88314C30.4039 7.88314 31.0159 8.04053 31.5852 8.35532C32.1544 8.67011 32.6171 9.14522 32.9759 9.77964H32.9749ZM32.1515 12.072C32.1515 11.1375 31.9023 10.4092 31.4038 9.8862C30.9053 9.36415 30.2478 9.10216 29.4312 9.10216C28.6147 9.10216 27.9571 9.36415 27.4586 9.8862C26.9602 10.4102 26.7769 11.1385 26.7769 12.072C26.7769 13.0056 26.9602 13.7349 27.4586 14.2579C27.9571 14.7818 28.6137 15.0419 29.4312 15.0419C30.2488 15.0419 30.9053 14.7799 31.4038 14.2579C31.9023 13.7358 32.1515 13.0056 32.1515 12.072ZM40.8603 13.5061H42.2957C42.1046 14.2481 41.7138 14.8903 41.1251 15.4329C40.5354 15.9764 39.6917 16.2472 38.593 16.2472C37.7667 16.2472 37.0393 16.0771 36.4099 15.7369C35.7805 15.3967 35.2946 14.9128 34.9513 14.2823C34.608 13.6528 34.4374 12.9117 34.4374 12.0583C34.4374 11.2049 34.6042 10.4639 34.9358 9.83435C35.2675 9.20484 35.734 8.71992 36.3333 8.37978C36.9327 8.03958 37.6348 7.86944 38.4407 7.86944C39.2466 7.86944 39.9148 8.0376 40.4734 8.37194C41.033 8.70724 41.45 9.15203 41.7274 9.70435C42.0047 10.2586 42.1424 10.8647 42.1424 11.5246V12.4386H35.8717C35.9211 13.2305 36.1869 13.861 36.665 14.3272C37.1431 14.7945 37.7861 15.0282 38.592 15.0282C39.2466 15.0282 39.7489 14.8943 40.0962 14.6245C40.4433 14.3546 40.6974 13.9822 40.8594 13.5042L40.8603 13.5061ZM35.8436 11.2978H40.5888C40.5888 10.6076 40.4123 10.0661 40.0593 9.67505C39.7063 9.28497 39.1526 9.08847 38.397 9.08847C37.692 9.08847 37.115 9.27911 36.6669 9.66039C36.2189 10.0407 35.9444 10.5871 35.8436 11.2978ZM57.507 16.0204H58.8676V5.0531H57.507V16.0214V16.0204ZM76.6294 7.23503H78.2183V5.52038H76.6294V7.23503ZM82.4957 14.8405C82.2486 14.8659 82.0991 14.8786 82.05 14.8786C81.98 14.8786 81.9226 14.8581 81.8831 14.817C81.843 14.7769 81.8221 14.7212 81.8221 14.6489C81.8221 14.599 81.8353 14.4485 81.861 14.1992C81.8849 13.9509 81.8987 13.5667 81.8987 13.0496V9.25955H83.8382L83.4559 8.0992H81.8993V5.96613H80.5401V8.09824H79.0606V9.2586H80.5401V13.4289C80.5401 14.3028 80.7524 14.9529 81.1748 15.3791C81.5977 15.8053 82.2426 16.0194 83.1101 16.0194H84.1678V14.8014H83.6383C83.1245 14.8014 82.744 14.8141 82.4969 14.8395L82.4957 14.8405ZM90.7149 8.0992L88.4631 14.7457C88.4332 14.8278 88.3853 14.9343 88.2316 14.9343C88.0772 14.9343 88.0288 14.8278 87.9983 14.7457L85.7465 8.0992H84.3598L86.9675 16.0204H87.89C87.9498 16.0204 87.9959 16.0263 88.027 16.036C88.0569 16.0458 88.082 16.0713 88.1024 16.1123C88.1419 16.1729 88.1371 16.2648 88.0868 16.386L87.6639 17.5435C87.6029 17.696 87.4874 17.7722 87.3169 17.7722C87.2559 17.7722 87.1153 17.7595 86.8939 17.7341C86.672 17.7086 86.386 17.696 86.0331 17.696H84.9293V18.914H86.3801C87.2266 18.914 87.7357 18.7693 88.1742 18.4799C88.6127 18.1906 88.9519 17.6803 89.1942 16.9491L92.0107 8.40322V8.0992H90.7149ZM72.0272 11.0544L69.8962 8.0992H68.4V8.40322L70.9533 11.8305L67.8401 15.7154V16.0194H69.3668L71.8453 12.8355L74.1575 16.0194H75.6238V15.7154L72.9179 12.0593L75.8511 8.41889V8.0992H74.3244L72.0278 11.0544H72.0272ZM76.7742 16.0204H78.1346V8.10015H76.7742V16.0214V16.0204ZM67.8216 13.5061C67.6295 14.2481 67.2401 14.8903 66.6514 15.4329C66.0615 15.9764 65.218 16.2472 64.1191 16.2472C63.2929 16.2472 62.5654 16.0771 61.9361 15.7369C61.3056 15.3967 60.821 14.9128 60.4775 14.2823C60.1352 13.6528 59.9645 12.9117 59.9645 12.0583C59.9645 11.2049 60.1313 10.4639 60.463 9.83435C60.7959 9.20484 61.2613 8.71992 61.8607 8.37978C62.4596 8.03958 63.1619 7.86944 63.9689 7.86944C64.7759 7.86944 65.443 8.0376 66.0023 8.37194C66.5611 8.70724 66.9792 9.15203 67.2562 9.70435C67.5338 10.2586 67.6714 10.8647 67.6714 11.5246V12.4386H61.4001C61.4503 13.2305 61.7147 13.861 62.1933 14.3272C62.6713 14.7945 63.3144 15.0282 64.1203 15.0282C64.7747 15.0282 65.2773 14.8943 65.6242 14.6245C65.9712 14.3546 66.2255 13.9822 66.3864 13.5042H67.8228L67.8216 13.5061ZM61.4037 11.2978H66.1489C66.1489 10.6076 65.9724 10.0661 65.6206 9.67505C65.2671 9.28497 64.7137 9.08847 63.9581 9.08847C63.2528 9.08847 62.6761 9.27911 62.228 9.66039C61.78 10.0407 61.5048 10.5871 61.4049 11.2978H61.4037Z" fill="white"/>
</svg>
