<svg width="71" height="22" viewBox="0 0 71 22" fill="none" xmlns="http://www.w3.org/2000/svg">
<g clip-path="url(#clip0_1_76)">
<path d="M53.6117 4.90423C54.8106 4.90423 55.783 3.91787 55.783 2.70178C55.783 1.48569 54.8106 0.499962 53.6117 0.499962C53.2249 0.494624 52.8437 0.59297 52.5078 0.78478C52.1718 0.97659 51.8934 1.25486 51.7013 1.59069C51.5069 1.92881 51.4045 2.31204 51.4045 2.7021C51.4045 3.09216 51.5069 3.47539 51.7013 3.81351C51.8934 4.14933 52.1718 4.42761 52.5078 4.61942C52.8437 4.81123 53.2249 4.90957 53.6117 4.90423ZM30.4468 7.34851C26.6031 7.34851 23.4831 10.5189 23.4831 14.4096C23.4831 18.2997 26.6101 21.4707 30.4468 21.4707C34.2834 21.4707 37.4111 18.2997 37.4111 14.4096C37.4111 10.5195 34.2911 7.34851 30.4468 7.34851ZM30.4468 18.1311C28.427 18.1311 26.7839 16.4644 26.7839 14.4166C26.7839 12.3694 28.427 10.7028 30.4468 10.7028C32.4666 10.7028 34.1097 12.3694 34.1097 14.4166C34.1097 16.4644 32.4666 18.1311 30.4468 18.1311ZM15.694 7.33323C15.8753 7.33323 16.0491 7.34087 16.2298 7.35551C17.7501 7.48787 19.1469 8.19996 20.1676 9.35942C21.1904 10.5158 21.7542 12.0067 21.7528 13.5505V21.185H18.4233V13.4551C18.4163 11.9354 17.178 10.6951 15.673 10.6951C15.5851 10.6951 15.4916 10.7021 15.3974 10.7098C14.0509 10.8491 12.922 12.1416 12.922 13.5359V21.1843H9.59188V13.4773C9.58424 11.9501 8.35415 10.7028 6.84851 10.7028C6.76133 10.7028 6.66715 10.7098 6.57297 10.7174C5.23406 10.8568 4.09751 12.1486 4.09751 13.5505V21.1843H0.839966V13.4551C0.839966 10.0785 3.55469 7.33323 6.88415 7.33323C8.54951 7.33323 10.1347 8.03833 11.2782 9.26396C11.8413 8.65497 12.5243 8.16907 13.2842 7.8368C14.0441 7.50453 14.8646 7.33308 15.694 7.33323ZM42.5358 0.830235H39.2063V21.199H42.5358V0.830235ZM45.5763 0.830235H48.9058V21.199H45.5763V0.830235ZM55.2764 7.68578H51.9463V21.192H55.2764V7.68578ZM68.9073 9.33014C70.1495 10.6044 70.8433 12.3144 70.84 14.094V15.6429H60.7129C61.1634 17.2834 62.6379 18.4181 64.3179 18.4174C65.6428 18.4174 66.8366 17.7346 67.5245 16.5821L67.662 16.355L70.413 17.727L70.2539 17.9987C69.0015 20.135 66.7068 21.4631 64.26 21.4631H64.253C62.3846 21.4631 60.6333 20.7147 59.3084 19.3567C58.6555 18.6911 58.1409 17.9029 57.7942 17.0374C57.4475 16.1719 57.2757 15.2464 57.2886 14.3141C57.3043 12.4755 58.0338 10.7149 59.3231 9.40396C59.9531 8.75742 60.7046 8.24167 61.5344 7.88632C62.3643 7.53097 63.2561 7.34301 64.1588 7.33323H64.2453C66.0042 7.33323 67.655 8.04596 68.9073 9.33014ZM67.4736 12.8531C66.9963 11.4149 65.6351 10.4018 64.1149 10.4018C62.5946 10.4018 61.2341 11.4149 60.7631 12.8531H67.4736Z" fill="white"/>
</g>
<defs>
<clipPath id="clip0_1_76">
<rect width="70" height="21" fill="white" transform="translate(0.839966 0.5)"/>
</clipPath>
</defs>
</svg>
