<svg width="78" height="22" viewBox="0 0 78 22" fill="none" xmlns="http://www.w3.org/2000/svg">
<g clip-path="url(#clip0_1_73)">
<path d="M18.9385 14.7569L18.928 14.7219L25.7803 8.47235V5.46165H14.7861V8.47235H21.3535L21.364 8.50175L14.5775 14.7569V17.7676H25.8909V14.7569H18.9385ZM32.6389 5.17465C31.3705 5.17465 30.3373 5.36505 29.5386 5.74655C28.7946 6.07771 28.1676 6.62504 27.7389 7.31735C27.3299 8.01253 27.0727 8.78644 26.9843 9.58815L30.3205 10.0557C30.4409 9.34805 30.6817 8.84545 31.0443 8.55005C31.4562 8.24049 31.9632 8.08428 32.4779 8.10835C33.1548 8.10835 33.6462 8.28895 33.9514 8.64945C34.2531 9.00995 34.4071 9.50905 34.4071 10.1677V10.4953H31.2004C29.5673 10.4953 28.3948 10.8558 27.6815 11.5775C26.9682 12.2985 26.6119 13.2512 26.6133 14.4335C26.6133 15.6452 26.9696 16.5475 27.6815 17.1383C28.3934 17.7298 29.288 18.0238 30.3674 18.0196C31.7058 18.0196 32.7348 17.5618 33.4551 16.6441C33.8801 16.0809 34.184 15.4357 34.3476 14.7492H34.4687L34.9286 17.7607H37.9512V10.1348C37.9512 8.55915 37.534 7.33835 36.7003 6.47315C35.8666 5.60725 34.5128 5.17465 32.6389 5.17465ZM33.6959 14.5749C33.2164 14.9732 32.5878 15.1713 31.8066 15.1713C31.1619 15.1713 30.7139 15.0586 30.4633 14.8339C30.341 14.7278 30.2437 14.5959 30.1783 14.4478C30.1128 14.2997 30.0808 14.139 30.0846 13.9771C30.0706 13.6691 30.184 13.3681 30.3982 13.1462C30.6306 12.9292 30.9407 12.8165 31.2578 12.834H34.412V13.0412C34.4186 13.3347 34.3574 13.6258 34.2332 13.8918C34.109 14.1578 33.9251 14.3916 33.6959 14.5749ZM56.2275 5.46165H52.6568V17.7697H56.2275V5.46165ZM77.3108 5.46165C76.3021 5.46165 75.5069 5.81585 74.9252 6.52495C74.508 7.03525 74.1909 7.78775 73.9732 8.78455H73.8682L73.4013 5.46165H70.3514V17.7676H73.9228V11.4564C73.9228 10.6612 74.1097 10.0515 74.4842 9.62665C74.8573 9.20245 75.5482 8.98965 76.5548 8.98965H77.91V5.46165H77.3108ZM66.8108 5.86415C65.9771 5.36995 64.9257 5.12355 63.6566 5.12425C61.6581 5.12425 60.0943 5.69125 58.9652 6.82525C57.8354 7.95855 57.2705 9.52095 57.2705 11.5131C57.2416 12.7175 57.5056 13.9109 58.0398 14.9907C58.5296 15.9547 59.291 16.7541 60.2301 17.2902C61.1758 17.8348 62.3014 18.1078 63.6055 18.1085C64.7339 18.1085 65.6768 17.9356 66.4328 17.5891C67.1435 17.2792 67.7629 16.7921 68.2318 16.1744C68.6776 15.5689 69.0088 14.8868 69.209 14.1619L66.1325 13.3037C66.0025 13.7749 65.7532 14.2045 65.4087 14.5511C65.0608 14.8969 64.4784 15.0705 63.6615 15.0705C62.6906 15.0705 61.9661 14.7933 61.4901 14.2396C61.1443 13.8392 60.9266 13.2673 60.8314 12.526H69.2566C69.2909 12.1802 69.3084 11.8897 69.3084 11.6552V10.8894C69.3293 9.85966 69.1161 8.83856 68.6847 7.90325C68.28 7.05008 67.6268 6.33925 66.8108 5.86415ZM63.553 8.05795C65.0013 8.05795 65.8224 8.76775 66.0163 10.188H60.8944C60.9756 9.71397 61.1725 9.26724 61.4677 8.88745C61.9374 8.33375 62.6325 8.05655 63.553 8.05795ZM54.4803 0.501448C54.2118 0.49215 53.9442 0.536796 53.6932 0.632743C53.4423 0.72869 53.2132 0.873991 53.0194 1.06005C52.8289 1.24761 52.6796 1.47272 52.5808 1.72108C52.4819 1.96944 52.4358 2.23562 52.4454 2.50275C52.4357 2.77162 52.4817 3.03959 52.5807 3.28981C52.6796 3.54002 52.8292 3.76706 53.0201 3.95665C53.2113 4.14683 53.4396 4.29563 53.6908 4.39377C53.942 4.49192 54.2108 4.53732 54.4803 4.52715C54.748 4.53751 55.0149 4.49208 55.2641 4.39375C55.5133 4.29541 55.7394 4.14632 55.9279 3.95595C56.3059 3.56745 56.5075 3.04245 56.4872 2.50275C56.4996 2.23689 56.4563 1.97138 56.3599 1.72327C56.2636 1.47517 56.1164 1.24997 55.9279 1.06215C55.7387 0.873815 55.5125 0.726847 55.2635 0.630566C55.0146 0.534285 54.7483 0.490793 54.4817 0.502848L54.4803 0.501448ZM47.1037 5.12425C45.8878 5.12425 44.9106 5.50505 44.1714 6.26595C43.6247 6.82945 43.2243 7.67085 42.9681 8.79015H42.854L42.3871 5.46725H39.3372V21.3061H42.9086V14.7821H43.0388C43.148 15.2168 43.3006 15.6403 43.4952 16.0442C43.7974 16.7039 44.293 17.2561 44.9162 17.6276C45.5628 17.9787 46.2904 18.1535 47.026 18.1344C48.5219 18.1344 49.6601 17.5541 50.4413 16.3935C51.2239 15.2336 51.6145 13.6152 51.6145 11.5383C51.6145 9.53215 51.2365 7.96135 50.4798 6.82735C49.7231 5.69195 48.5982 5.12425 47.1037 5.12425ZM47.4663 14.0422C47.0498 14.6435 46.3981 14.9445 45.5112 14.9445C45.1458 14.9614 44.7817 14.8912 44.4488 14.7397C44.1159 14.5882 43.8239 14.3597 43.5967 14.073C43.134 13.4948 42.9037 12.7038 42.9044 11.6986V11.4641C42.9044 10.4435 43.1354 9.66235 43.5967 9.12055C44.0566 8.57805 44.6957 8.30995 45.5112 8.31625C46.4142 8.31625 47.0694 8.60115 47.4789 9.17305C47.8877 9.74355 48.0921 10.5394 48.0921 11.5614C48.0949 12.6177 47.8877 13.4451 47.4691 14.0422H47.4663ZM13.195 14.7562H0.839966V17.7711H13.195V14.7562Z" fill="white"/>
</g>
<defs>
<clipPath id="clip0_1_73">
<rect width="77" height="21" fill="white" transform="translate(0.839966 0.5)"/>
</clipPath>
</defs>
</svg>
