<svg width="78" height="22" viewBox="0 0 78 22" fill="none" xmlns="http://www.w3.org/2000/svg">
<g clip-path="url(#clip0_1_79)">
<path d="M21.5059 4.96504C20.6269 4.96504 19.8479 5.43004 19.3729 6.14804L16.1489 11.011C16.0915 11.1006 16.0128 11.1745 15.9197 11.226C15.8267 11.2775 15.7222 11.305 15.6159 11.306C15.2539 11.306 14.9599 10.991 14.9599 10.601C14.9599 10.456 14.9999 10.32 15.0689 10.209L17.7919 5.82504C18.0559 5.39319 18.2064 4.90155 18.2293 4.39589C18.2522 3.89023 18.1468 3.387 17.9229 2.93305C17.4679 2.01705 16.5809 1.44604 15.6159 1.44604H1.21887V4.26204H13.6549C13.6549 5.03904 13.0679 5.67004 12.3459 5.67004H1.21887C1.21887 6.67204 1.41287 7.62404 1.76587 8.48704H11.0369C11.0369 9.26304 10.4499 9.89505 9.72887 9.89505H2.52687C3.72087 11.605 5.62287 12.712 7.76487 12.712H11.6899C12.0519 12.712 12.3459 13.028 12.3459 13.417C12.3459 13.807 12.0519 14.123 11.6899 14.123H7.76487L3.39187 21.167H12.0199C15.6419 21.167 18.7169 18.631 19.7909 15.121L21.2659 10.311C21.7256 8.78805 22.5871 7.41702 23.7599 6.34204C23.2989 5.51604 22.4629 4.96504 21.5059 4.96504ZM21.5059 6.90304C21.2359 6.90304 21.0169 6.66704 21.0169 6.37604C21.0169 6.08504 21.2359 5.84904 21.5059 5.84904C21.7779 5.84904 21.9959 6.08604 21.9959 6.37604C21.9989 6.66604 21.7779 6.90304 21.5059 6.90304ZM40.2019 14.252C40.7309 14.983 40.9949 15.818 40.9949 16.758C40.9949 18.113 40.5539 19.186 39.6749 19.978C38.7959 20.77 37.5669 21.167 35.9949 21.167H28.9799V4.95904H35.7599C37.2899 4.95904 38.4889 5.33504 39.3539 6.09004C40.2189 6.84405 40.6509 7.86804 40.6509 9.16204C40.6509 10.117 40.4189 10.909 39.9549 11.541C39.4959 12.1693 38.8447 12.6309 38.0999 12.856C38.9699 13.054 39.6719 13.519 40.2019 14.252ZM32.6479 11.516H35.0499C35.6519 11.516 36.1129 11.374 36.4329 11.088C36.7539 10.804 36.9169 10.382 36.9169 9.83004C36.9169 9.27604 36.7569 8.85404 36.4329 8.56104C36.1129 8.26804 35.6519 8.12304 35.0499 8.12304H32.6479V11.516ZM36.7799 17.528C37.1149 17.229 37.2839 16.795 37.2839 16.225C37.2839 15.654 37.1089 15.208 36.7569 14.884C36.4079 14.561 35.9239 14.4 35.3079 14.4H32.6479V17.978H35.3509C35.9669 17.981 36.4419 17.83 36.7799 17.528ZM46.7879 4.95904V21.167H43.1199V4.95904H46.7879ZM57.1299 21.167L53.9979 15.047H53.1189V21.167H49.4479V4.95904H55.6039C56.7919 4.95904 57.8029 5.18004 58.6389 5.62704C59.4749 6.07404 60.1029 6.68705 60.5179 7.46405C60.9329 8.24005 61.1389 9.10605 61.1389 10.062C61.1389 11.14 60.8559 12.101 60.2919 12.949C59.7269 13.796 58.8939 14.397 57.7919 14.748L61.2679 21.167H57.1299ZM53.1159 12.252H55.3889C56.0619 12.252 56.5659 12.077 56.9009 11.722C57.2359 11.368 57.4049 10.869 57.4049 10.222C57.4049 9.60505 57.2359 9.12205 56.9009 8.76705C56.5659 8.41304 56.0619 8.23704 55.3889 8.23704H53.1159V12.252ZM73.2429 5.97204C74.4174 6.63681 75.3748 7.62687 75.9999 8.82304C76.6499 10.046 76.9769 11.457 76.9769 13.06C76.9769 14.647 76.6499 16.055 75.9999 17.285C75.3762 18.489 74.4136 19.484 73.2309 20.147C72.0369 20.825 70.6539 21.164 69.0789 21.164H63.4359V4.95604H69.0789C70.6689 4.95904 72.0549 5.29804 73.2429 5.97204ZM72.0829 16.526C72.8559 15.71 73.2429 14.557 73.2429 13.063C73.2429 11.571 72.8559 10.407 72.0829 9.57804C71.3099 8.74605 70.2309 8.33004 68.8449 8.33004H67.1069V17.75H68.8449C70.2309 17.75 71.3099 17.34 72.0829 16.526Z" fill="white"/>
</g>
<defs>
<clipPath id="clip0_1_79">
<rect width="77" height="21" fill="white" transform="translate(0.839966 0.5)"/>
</clipPath>
</defs>
</svg>
